<svg xmlns="http://www.w3.org/2000/svg" xmlns:xlink="http://www.w3.org/1999/xlink" width="50" zoomAndPan="magnify" viewBox="0 0 37.5 37.499999" height="50" preserveAspectRatio="xMidYMid meet" version="1.0"><defs><g/><clipPath id="52ee87bdfc"><path d="M 2.34375 3.738281 L 34.652344 3.738281 L 34.652344 13.8125 L 2.34375 13.8125 Z M 2.34375 3.738281 " clip-rule="nonzero"/></clipPath><clipPath id="25414b6c5f"><path d="M 18.664062 3.800781 L 34.621094 13.710938 C 34.640625 13.726562 34.652344 13.75 34.644531 13.773438 C 34.636719 13.796875 34.617188 13.8125 34.59375 13.8125 L 2.414062 13.8125 C 2.390625 13.8125 2.367188 13.796875 2.363281 13.773438 C 2.355469 13.75 2.363281 13.726562 2.386719 13.710938 L 18.34375 3.800781 C 18.441406 3.738281 18.566406 3.738281 18.664062 3.800781 Z M 18.664062 3.800781 " clip-rule="nonzero"/></clipPath><clipPath id="c030255176"><path d="M 2.230469 3.699219 L 34.660156 3.699219 L 34.660156 14 L 2.230469 14 Z M 2.230469 3.699219 " clip-rule="nonzero"/></clipPath><clipPath id="a839cd08de"><path d="M 18.660156 3.800781 L 34.613281 13.707031 C 34.636719 13.722656 34.644531 13.746094 34.636719 13.769531 C 34.632812 13.792969 34.609375 13.808594 34.585938 13.808594 L 2.417969 13.808594 C 2.394531 13.808594 2.375 13.792969 2.367188 13.769531 C 2.359375 13.746094 2.371094 13.722656 2.390625 13.707031 L 18.34375 3.800781 C 18.441406 3.738281 18.5625 3.738281 18.660156 3.800781 Z M 18.660156 3.800781 " clip-rule="nonzero"/></clipPath></defs><g fill="#004aad" fill-opacity="1"><g transform="translate(2.270521, 32.61942)"><g><path d="M 9.515625 -17.578125 C 12.023438 -17.578125 14.171875 -16.691406 15.953125 -14.921875 C 17.722656 -13.140625 18.609375 -10.992188 18.609375 -8.484375 C 18.609375 -5.960938 17.722656 -3.8125 15.953125 -2.03125 C 14.171875 -0.257812 12.023438 0.625 9.515625 0.625 C 6.992188 0.625 4.847656 -0.257812 3.078125 -2.03125 C 1.296875 -3.8125 0.40625 -5.960938 0.40625 -8.484375 C 0.40625 -10.992188 1.296875 -13.140625 3.078125 -14.921875 C 4.847656 -16.691406 6.992188 -17.578125 9.515625 -17.578125 Z M 13.265625 -4.734375 C 14.296875 -5.765625 14.8125 -7.015625 14.8125 -8.484375 C 14.8125 -9.941406 14.296875 -11.191406 13.265625 -12.234375 C 12.234375 -13.265625 10.984375 -13.78125 9.515625 -13.78125 C 8.046875 -13.78125 6.796875 -13.265625 5.765625 -12.234375 C 4.734375 -11.191406 4.21875 -9.941406 4.21875 -8.484375 C 4.21875 -7.015625 4.734375 -5.765625 5.765625 -4.734375 C 6.828125 -3.691406 8.078125 -3.171875 9.515625 -3.171875 C 10.941406 -3.171875 12.191406 -3.691406 13.265625 -4.734375 Z M 13.265625 -4.734375 "/></g></g></g><g fill="#004aad" fill-opacity="1"><g transform="translate(21.284447, 32.61942)"><g><path d="M 12.640625 -3.796875 L 12.640625 0 L 0.8125 0 L 0.8125 -3.796875 L 7.203125 -10.1875 L 0.8125 -10.1875 L 0.8125 -14 L 12.578125 -14 L 12.578125 -10.1875 L 6.1875 -3.796875 Z M 12.640625 -3.796875 "/></g></g></g><g clip-path="url(#52ee87bdfc)"><g clip-path="url(#25414b6c5f)"><path fill="#004aad" d="M 2.226562 3.699219 L 34.769531 3.699219 L 34.769531 13.8125 L 2.226562 13.8125 Z M 2.226562 3.699219 " fill-opacity="1" fill-rule="nonzero"/></g></g><g clip-path="url(#c030255176)"><g clip-path="url(#a839cd08de)"><path stroke-linecap="butt" transform="matrix(0.740132, 0, 0, 0.740132, 2.230106, 3.700658)" fill="none" stroke-linejoin="miter" d="M 22.198824 0.135278 L 43.753268 13.519723 C 43.784935 13.540834 43.79549 13.5725 43.784935 13.604167 C 43.779657 13.635834 43.74799 13.656945 43.716324 13.656945 L 0.253824 13.656945 C 0.222157 13.656945 0.195768 13.635834 0.185212 13.604167 C 0.174657 13.5725 0.19049 13.540834 0.216879 13.519723 L 21.771324 0.135278 C 21.903268 0.0508337 22.066879 0.0508337 22.198824 0.135278 Z M 22.198824 0.135278 " stroke="#004aad" stroke-width="2" stroke-opacity="1" stroke-miterlimit="4"/></g></g></svg>