<svg xmlns="http://www.w3.org/2000/svg" xmlns:xlink="http://www.w3.org/1999/xlink" width="300" zoomAndPan="magnify" viewBox="0 0 224.87999 74.999997" height="100" preserveAspectRatio="xMidYMid meet" version="1.0"><defs><g/><clipPath id="3cb2356967"><path d="M 0.792969 2.257812 L 64.539062 2.257812 L 64.539062 22.234375 L 0.792969 22.234375 Z M 0.792969 2.257812 " clip-rule="nonzero"/></clipPath><clipPath id="a73f2356b5"><path d="M 33.648438 2.542969 L 64.382812 21.632812 C 64.503906 21.710938 64.5625 21.859375 64.523438 22 C 64.484375 22.140625 64.355469 22.234375 64.210938 22.234375 L 1.144531 22.234375 C 0.996094 22.234375 0.871094 22.140625 0.828125 22 C 0.789062 21.859375 0.847656 21.710938 0.972656 21.632812 L 31.707031 2.542969 C 32.300781 2.171875 33.050781 2.171875 33.648438 2.542969 Z M 33.648438 2.542969 " clip-rule="nonzero"/></clipPath><clipPath id="78bac8771a"><path d="M 0.0117188 2 L 65 2 L 65 22.179688 L 0.0117188 22.179688 Z M 0.0117188 2 " clip-rule="nonzero"/></clipPath><clipPath id="3594528821"><path d="M 33.640625 2.542969 L 64.359375 21.621094 C 64.484375 21.699219 64.542969 21.847656 64.5 21.988281 C 64.460938 22.128906 64.332031 22.226562 64.1875 22.226562 L 1.15625 22.226562 C 1.011719 22.226562 0.882812 22.128906 0.84375 21.988281 C 0.800781 21.847656 0.859375 21.699219 0.984375 21.621094 L 31.703125 2.542969 C 32.296875 2.171875 33.046875 2.171875 33.640625 2.542969 Z M 33.640625 2.542969 " clip-rule="nonzero"/></clipPath></defs><g fill="#004aad" fill-opacity="1"><g transform="translate(0, 59.989214)"><g><path d="M 19.09375 -35.28125 C 24.144531 -35.28125 28.453125 -33.5 32.015625 -29.9375 C 35.578125 -26.375 37.359375 -22.066406 37.359375 -17.015625 C 37.359375 -11.960938 35.578125 -7.65625 32.015625 -4.09375 C 28.453125 -0.53125 24.144531 1.25 19.09375 1.25 C 14.03125 1.25 9.71875 -0.53125 6.15625 -4.09375 C 2.59375 -7.65625 0.8125 -11.960938 0.8125 -17.015625 C 0.8125 -22.066406 2.59375 -26.375 6.15625 -29.9375 C 9.71875 -33.5 14.03125 -35.28125 19.09375 -35.28125 Z M 26.609375 -9.484375 C 28.679688 -11.554688 29.71875 -14.066406 29.71875 -17.015625 C 29.71875 -19.960938 28.679688 -22.472656 26.609375 -24.546875 C 24.535156 -26.609375 22.03125 -27.640625 19.09375 -27.640625 C 16.144531 -27.640625 13.632812 -26.609375 11.5625 -24.546875 C 9.488281 -22.472656 8.453125 -19.960938 8.453125 -17.015625 C 8.453125 -14.066406 9.488281 -11.554688 11.5625 -9.484375 C 13.707031 -7.410156 16.21875 -6.375 19.09375 -6.375 C 21.957031 -6.375 24.460938 -7.410156 26.609375 -9.484375 Z M 26.609375 -9.484375 "/></g></g></g><g fill="#004aad" fill-opacity="1"><g transform="translate(38.167743, 59.989214)"><g><path d="M 25.359375 -7.640625 L 25.359375 0 L 1.640625 0 L 1.640625 -7.640625 L 14.453125 -20.453125 L 1.640625 -20.453125 L 1.640625 -28.078125 L 25.25 -28.078125 L 25.25 -20.453125 L 12.4375 -7.640625 Z M 25.359375 -7.640625 "/></g></g></g><g fill="#000000" fill-opacity="1"><g transform="translate(65.161106, 59.989214)"><g><path d="M 15.109375 -35.234375 C 19.972656 -35.234375 24.148438 -33.503906 27.640625 -30.046875 C 31.097656 -26.585938 32.828125 -22.40625 32.828125 -17.5 C 32.828125 -12.632812 31.097656 -8.457031 27.640625 -4.96875 C 24.148438 -1.507812 19.972656 0.21875 15.109375 0.21875 L 1.640625 0.21875 L 1.640625 -35.234375 Z M 21.859375 -10.75 C 23.710938 -12.601562 24.640625 -14.851562 24.640625 -17.5 C 24.640625 -20.125 23.710938 -22.398438 21.859375 -24.328125 C 20.015625 -26.179688 17.742188 -27.109375 15.046875 -27.109375 L 10.140625 -27.109375 L 10.140625 -7.96875 L 15.109375 -7.96875 C 17.765625 -7.96875 20.015625 -8.894531 21.859375 -10.75 Z M 21.859375 -10.75 "/></g></g></g><g fill="#000000" fill-opacity="1"><g transform="translate(99.293958, 59.989214)"><g><path d="M 14.5625 -28.078125 C 18.445312 -28.117188 21.753906 -26.773438 24.484375 -24.046875 C 27.242188 -21.285156 28.625 -17.976562 28.625 -14.125 C 28.664062 -10.226562 27.320312 -6.921875 24.59375 -4.203125 C 21.863281 -1.429688 18.570312 -0.03125 14.71875 0 C 10.832031 0.03125 7.507812 -1.3125 4.75 -4.03125 C 1.976562 -6.757812 0.59375 -10.066406 0.59375 -13.953125 C 0.5625 -17.847656 1.910156 -21.160156 4.640625 -23.890625 C 7.359375 -26.648438 10.664062 -28.046875 14.5625 -28.078125 Z M 19.515625 -9.15625 C 20.867188 -10.5 21.546875 -12.132812 21.546875 -14.0625 C 21.546875 -15.957031 20.851562 -17.597656 19.46875 -18.984375 C 18.082031 -20.285156 16.445312 -20.9375 14.5625 -20.9375 C 12.664062 -20.9375 11.046875 -20.265625 9.703125 -18.921875 C 8.359375 -17.503906 7.6875 -15.867188 7.6875 -14.015625 C 7.6875 -12.117188 8.378906 -10.484375 9.765625 -9.109375 C 11.109375 -7.765625 12.742188 -7.09375 14.671875 -7.09375 C 16.628906 -7.164062 18.242188 -7.851562 19.515625 -9.15625 Z M 19.515625 -9.15625 "/></g></g></g><g fill="#000000" fill-opacity="1"><g transform="translate(128.519545, 59.989214)"><g><path d="M 9.265625 -23.890625 C 9.890625 -25.628906 10.925781 -26.84375 12.375 -27.53125 C 13.789062 -28.226562 15.921875 -28.578125 18.765625 -28.578125 L 18.765625 -20.78125 C 15.992188 -20.78125 13.679688 -19.832031 11.828125 -17.9375 C 10.117188 -16.269531 9.265625 -14.4375 9.265625 -12.4375 L 9.265625 0 L 1.640625 0 L 1.640625 -28.078125 L 9.265625 -28.078125 Z M 9.265625 -23.890625 "/></g></g></g><g fill="#000000" fill-opacity="1"><g transform="translate(148.094144, 59.989214)"><g><path d="M 35.984375 -28.140625 C 39.765625 -28.171875 42.835938 -27.039062 45.203125 -24.75 C 47.753906 -22.351562 49.03125 -18.992188 49.03125 -14.671875 L 49.03125 0 L 41.9375 0 L 41.9375 -14.171875 C 41.9375 -14.722656 41.84375 -15.34375 41.65625 -16.03125 C 41.40625 -16.863281 41.0625 -17.609375 40.625 -18.265625 C 39.457031 -20.117188 37.75 -21.046875 35.5 -21.046875 C 33.101562 -21.046875 31.359375 -20.117188 30.265625 -18.265625 C 29.867188 -17.578125 29.578125 -16.796875 29.390625 -15.921875 C 29.242188 -15.304688 29.171875 -14.6875 29.171875 -14.0625 L 29.171875 0 L 22.03125 0 L 22.03125 -14.171875 C 22.03125 -14.722656 21.941406 -15.34375 21.765625 -16.03125 C 21.546875 -16.863281 21.21875 -17.609375 20.78125 -18.265625 C 19.582031 -20.117188 17.875 -21.046875 15.65625 -21.046875 C 13.21875 -21.046875 11.453125 -20.117188 10.359375 -18.265625 C 9.960938 -17.578125 9.671875 -16.796875 9.484375 -15.921875 C 9.335938 -15.304688 9.265625 -14.6875 9.265625 -14.0625 L 9.265625 0 L 1.640625 0 L 1.640625 -28.1875 L 9.265625 -28.1875 L 9.265625 -25.25 C 11.046875 -27.175781 13.335938 -28.140625 16.140625 -28.140625 C 20.242188 -28.210938 23.570312 -26.628906 26.125 -23.390625 L 28.40625 -25.515625 C 30.550781 -27.265625 33.078125 -28.140625 35.984375 -28.140625 Z M 35.984375 -28.140625 "/></g></g></g><g fill="#000000" fill-opacity="1"><g transform="translate(198.748194, 59.989214)"><g><path d="M 12.984375 0 C 11.085938 0 9.429688 -0.289062 8.015625 -0.875 C 6.890625 -1.269531 5.726562 -2.015625 4.53125 -3.109375 C 2.457031 -5.035156 1.507812 -7.472656 1.6875 -10.421875 L 1.6875 -11.015625 L 7.796875 -10.90625 L 8.28125 -10.90625 L 8.28125 -10.46875 C 8.320312 -9.5625 8.523438 -8.816406 8.890625 -8.234375 C 9.503906 -7.179688 10.867188 -6.65625 12.984375 -6.65625 C 14.722656 -6.65625 15.972656 -6.851562 16.734375 -7.25 C 17.140625 -7.4375 17.414062 -7.675781 17.5625 -7.96875 C 17.632812 -8.070312 17.671875 -8.175781 17.671875 -8.28125 L 17.71875 -8.5625 C 17.71875 -9.320312 17.117188 -9.941406 15.921875 -10.421875 C 15.453125 -10.597656 14.90625 -10.742188 14.28125 -10.859375 C 13.8125 -10.960938 13.285156 -11.050781 12.703125 -11.125 C 10.523438 -11.34375 8.707031 -11.78125 7.25 -12.4375 C 5.800781 -13.019531 4.601562 -13.816406 3.65625 -14.828125 C 2.34375 -16.316406 1.6875 -18.023438 1.6875 -19.953125 C 1.6875 -21.160156 1.90625 -22.269531 2.34375 -23.28125 C 2.664062 -24.082031 3.101562 -24.789062 3.65625 -25.40625 C 5.613281 -27.664062 8.757812 -28.796875 13.09375 -28.796875 C 15.664062 -28.796875 17.84375 -28.285156 19.625 -27.265625 C 21.007812 -26.503906 22.117188 -25.46875 22.953125 -24.15625 C 23.609375 -23.175781 24.066406 -22.03125 24.328125 -20.71875 C 24.398438 -20.28125 24.453125 -19.863281 24.484375 -19.46875 L 24.484375 -18.328125 L 17.890625 -18.328125 L 17.890625 -19.140625 C 17.847656 -19.285156 17.828125 -19.429688 17.828125 -19.578125 C 17.722656 -19.972656 17.578125 -20.300781 17.390625 -20.5625 C 16.597656 -21.644531 15.164062 -22.1875 13.09375 -22.1875 C 10.03125 -22.1875 8.5 -21.550781 8.5 -20.28125 C 8.5 -19.625 8.863281 -19.097656 9.59375 -18.703125 C 10.363281 -18.234375 11.65625 -17.890625 13.46875 -17.671875 C 17.644531 -17.234375 20.679688 -15.90625 22.578125 -13.6875 C 23.847656 -12.195312 24.484375 -10.488281 24.484375 -8.5625 L 24.484375 -8.1875 L 24.4375 -7.6875 C 24.4375 -7.21875 24.378906 -6.78125 24.265625 -6.375 C 23.972656 -5.21875 23.425781 -4.179688 22.625 -3.265625 C 21.71875 -2.179688 20.445312 -1.363281 18.8125 -0.8125 C 17.175781 -0.269531 15.234375 0 12.984375 0 Z M 12.984375 0 "/></g></g></g><g clip-path="url(#3cb2356967)"><g clip-path="url(#a73f2356b5)"><path fill="#004aad" d="M 0 1.9375 L 65.332031 1.9375 L 65.332031 22.234375 L 0 22.234375 Z M 0 1.9375 " fill-opacity="1" fill-rule="nonzero"/></g></g><g clip-path="url(#78bac8771a)"><g clip-path="url(#3594528821)"><path stroke-linecap="butt" transform="matrix(0.7496, 0, 0, 0.7496, 0.0132872, 1.938926)" fill="none" stroke-linejoin="miter" d="M 44.860377 0.805821 L 85.840567 26.256895 C 86.007323 26.361117 86.085489 26.55914 86.028167 26.74674 C 85.976056 26.93434 85.804089 27.064618 85.611278 27.064618 L 1.524764 27.064618 C 1.331952 27.064618 1.159986 26.93434 1.107875 26.74674 C 1.050552 26.55914 1.128719 26.361117 1.295475 26.256895 L 42.275665 0.805821 C 43.067754 0.310765 44.068288 0.310765 44.860377 0.805821 Z M 44.860377 0.805821 " stroke="#004aad" stroke-width="6" stroke-opacity="1" stroke-miterlimit="4"/></g></g></svg>